<?xml version="1.0" encoding="UTF-8" standalone="no"?>
<!-- Created with Inkscape (http://www.inkscape.org/) -->

<svg
   xmlns:dc="http://purl.org/dc/elements/1.1/"
   xmlns:cc="http://creativecommons.org/ns#"
   xmlns:rdf="http://www.w3.org/1999/02/22-rdf-syntax-ns#"
   xmlns:svg="http://www.w3.org/2000/svg"
   xmlns="http://www.w3.org/2000/svg"
   xmlns:sodipodi="http://sodipodi.sourceforge.net/DTD/sodipodi-0.dtd"
   xmlns:inkscape="http://www.inkscape.org/namespaces/inkscape"
   width="19.304882mm"
   height="11.204298mm"
   viewBox="0 0 19.304882 11.204298"
   version="1.1"
   id="svg8"
   inkscape:version="0.92.4 (33fec40, 2019-01-16)"
   sodipodi:docname="sa.svg">
  <defs
     id="defs2" />
  <sodipodi:namedview
     id="base"
     pagecolor="#ffffff"
     bordercolor="#666666"
     borderopacity="1.0"
     inkscape:pageopacity="0.0"
     inkscape:pageshadow="2"
     inkscape:zoom="3.959798"
     inkscape:cx="81.543705"
     inkscape:cy="-42.184234"
     inkscape:document-units="mm"
     inkscape:current-layer="layer1"
     showgrid="false"
     inkscape:window-width="1215"
     inkscape:window-height="1000"
     inkscape:window-x="65"
     inkscape:window-y="24"
     inkscape:window-maximized="1" />
  <metadata
     id="metadata5">
    <rdf:RDF>
      <cc:Work
         rdf:about="">
        <dc:format>image/svg+xml</dc:format>
        <dc:type
           rdf:resource="http://purl.org/dc/dcmitype/StillImage" />
        <dc:title></dc:title>
      </cc:Work>
    </rdf:RDF>
  </metadata>
  <g
     inkscape:label="Layer 1"
     inkscape:groupmode="layer"
     id="layer1"
     transform="translate(70.681546,-74.750001)">
    <g
       id="g835"
       transform="matrix(0.02144987,0,0,0.01867383,-70.681546,74.750001)">
      <path
         id="path815"
         d="M 0,0 H 900 V 600 H 0 Z"
         inkscape:connector-curvature="0"
         style="fill:#006c35" />
      <g
         id="g821"
         style="fill:#ffffff">
        <path
           id="path817"
           d="m 599.093,259.1 c 1.537,0.824 5.58,-4.15 5.437,-10.388 0.445,-3.206 -1.144,-15.02 -5.175,-17.025 a 3.8,3.8 0 0 0 -1.463,-0.112 c -2.107,0.26 -4.1,2.253 -3.187,5.438 -0.578,1.87 2.86,8.414 3.75,11.887 0.802,2.472 -1.033,9.465 0.637,10.2 z M 280.835,158.737 c 4.936,2.354 14.192,1.36 13.8,-6.6 0,-0.704 -0.155,-3.068 -0.225,-3.713 -0.504,-1.173 -1.434,-1.617 -2.325,-1.462 l 0.01,0.001 c -0.9,0.155 -1.75,0.9 -2.063,2.1 -0.196,0.793 0.343,2.113 -0.375,2.513 -0.412,0.416 -1.978,0.136 -1.913,-2.062 0,-0.7 -0.514,-1.43 -0.825,-1.875 -0.312,-0.205 -0.523,-0.263 -1.087,-0.263 -0.688,0.028 -0.673,0.2 -1.05,0.788 -0.168,0.588 -0.384,1.164 -0.384,1.836 -0.086,0.783 -0.4,1.048 -0.975,1.163 -0.643,0 -0.5,0.07 -1.013,-0.263 -0.3,-0.338 -0.675,-0.472 -0.675,-1.05 0,-0.6 -0.157,-1.555 -0.338,-1.95 -0.273,-0.36 -0.705,-0.548 -1.2,-0.675 -2.696,0.01 -2.892,3.108 -2.737,4.275 -0.202,0.22 -0.302,5.7 3.375,7.237 z m -39.56,-0.307 c 0.756,1.884 -0.75,7.952 0.825,8.512 1.448,0.628 3.442,-4.2 4.2,-8.663 0.42,-2.444 0.102,-10.8 -5.587,-12.525 a 4.694,4.694 0 0 0 -0.9,-0.112 c -2.175,-0.062 -4.574,1.286 -3.638,3.9 -0.545,1.425 4.257,6.24 5.1,8.888 z m 174.3,2.25 c 2.834,-7.66 2.848,-10.925 3.037,-14.174 -0.44,-2.475 -1.517,-3.67 -2.737,-3.562 -1.22,0.108 -2.572,1.527 -3.675,4.274 -0.946,2.1 -2.1,13.013 -1.913,13.013 -0.755,3.25 3.397,4.63 5.287,0.45 z m -35.215,-2.135 c 1.4,2.005 2.78,1.8 5.587,0.337 1.612,-1.187 2.157,-1.945 2.7,-3.937 0.67,-3.34 -3.515,1.58 -4.05,-2.138 -0.935,-3.452 1.736,-4.872 4.275,-8.212 0.058,-1.573 0.086,-2.857 -0.937,-2.888 -0.465,-0.014 -1.16,0.246 -2.137,0.825 -2.194,1.47 -6.542,6 -6.675,11.212 -0.133,2.94 -0.688,2.93 1.237,4.8 z m -143.917,52.74 c 14.406,1.385 6.448,-24.353 11.663,-29.026 0.986,-2.3 2.813,-2.35 2.962,0.563 v 21.863 c -0.132,7.107 4.545,9.22 8.175,10.688 3.777,-0.292 6.282,-0.188 7.763,3.487 l 1.8,37.837 c 0,0 8.733,2.5 9.15,-21.263 0.418,-13.958 -2.78,-25.672 -0.9,-28.387 0.066,-2.668 3.487,-2.8 5.85,-1.5 3.765,2.656 5.436,5.925 11.287,4.612 8.904,-2.453 14.268,-6.775 14.4,-13.613 -0.52,-6.498 -1.272,-13.002 -4.087,-19.5 0.393,-1.182 -1.704,-4.256 -1.313,-5.437 1.6,2.506 4.02,2.298 4.575,0 -1.516,-4.995 -3.875,-9.78 -7.687,-11.85 -3.15,-2.776 -7.762,-2.2 -9.45,3.6 -0.783,6.67 2.418,14.576 7.275,21.037 1.032,2.524 2.475,6.723 1.837,10.5 -2.585,1.474 -5.148,0.86 -7.313,-1.425 0,0 -7.087,-5.306 -7.087,-6.487 1.88,-12.042 0.405,-13.42 -0.638,-16.763 -0.728,-4.613 -2.914,-6.074 -4.687,-9.225 -1.773,-1.88 -4.178,-1.88 -5.325,0 -3.133,5.43 -1.663,17.1 0.6,22.313 1.635,4.803 4.143,7.8 2.963,7.8 -0.973,2.714 -3,2.083 -4.463,-1.05 -2.088,-6.475 -2.513,-16.125 -2.513,-20.475 -0.627,-5.393 -1.325,-16.914 -4.875,-19.837 -0.947,-1.3 -2.065,-1.74 -3.15,-1.613 -1.395,0.163 -2.707,1.298 -3.337,2.812 -0.233,5.353 -0.265,10.704 0.338,15.637 2.435,8.653 3.206,16.264 4.387,25.125 0.328,11.87 -6.854,5.134 -6.525,-0.75 1.658,-7.643 1.2,-19.675 -0.263,-22.726 -1.168,-3.05 -2.52,-3.802 -5.363,-3.3 -2.256,-0.138 -8.083,6.212 -9.712,16.726 0,0 -1.357,5.396 -1.95,10.2 -0.797,5.43 -4.394,9.274 -6.9,-0.75 -2.166,-7.286 -3.498,-25.238 -7.125,-21.037 -1.04,14.017 -2.273,38.682 9.637,41.213 z M 329.258,187.5 c 0.006,0.003 0.03,-0.003 0.037,0 0.007,0.003 0.03,0.035 0.037,0.038 0.007,0.003 0.028,-0.002 0.037,0 l 0.037,0.037 c 0.938,0.63 12.485,0.614 13.763,0.038 0.01,-0.005 0.03,-0.032 0.037,-0.038 0.007,-0.006 0.034,0.002 0.037,0 0.003,-0.002 -0.002,-0.035 0,-0.037 3.968,-1.462 22.8,-22.987 22.8,-22.987 -0.976,-0.836 -1.875,-1.452 -2.85,-2.288 -1.045,-0.905 -0.94,-1.794 0,-2.7 4.664,-2.714 3.186,-8.686 0.75,-11.4 -2.02,-0.905 -3.92,-1.212 -5.625,-1.125 -1.705,0.087 -3.212,0.576 -4.5,1.238 -3.272,3.133 -4.04,8.155 -1.463,11.288 2.507,1.184 5,3.708 3.337,5.1 -7.1,7.573 -25.544,20.228 -26.474,22.537 -0.007,0.02 -0.033,0.058 -0.037,0.075 -0.004,0.017 0,0.06 0,0.075 v 0.038 a 0.34,0.34 0 0 0 0.037,0.075 l 0.037,0.038 z M 357.2,153.76 a 1.53,1.53 0 0 1 0.225,-0.037 c 1.152,-0.118 2.543,0.94 3.225,2.437 0.727,1.597 0.362,3.122 -0.825,3.413 -1.187,0.291 -2.723,-0.766 -3.45,-2.362 -0.727,-1.596 -0.362,-3.16 0.825,-3.45 z m 26.047,46.373 c 5.76,2.385 9.416,-8.58 11.775,-20.587 1.614,-3.37 2.846,-3.757 3.675,-2.025 -0.213,15.967 1.145,19.53 5.25,24.375 9.157,7.065 16.732,0.895 17.326,0.3 l 7.125,-7.125 c 1.587,-1.67 3.684,-1.77 5.925,-0.3 2.178,1.98 1.9,5.4 6.563,7.763 3.925,1.57 12.306,0.382 14.25,-3 2.616,-4.484 3.25,-6.024 4.463,-7.725 1.867,-2.485 5.063,-1.385 5.063,-0.6 -0.298,1.386 -2.175,2.753 -0.9,5.25 2.22,1.666 2.736,0.595 4.05,0.225 4.646,-2.22 8.137,-12.3 8.137,-12.3 0.206,-3.76 -1.933,-3.474 -3.3,-2.7 -1.783,1.1 -1.892,1.46 -3.675,2.55 -2.272,0.338 -6.672,1.836 -8.85,-1.537 -2.224,-4.056 -2.237,-9.7 -3.937,-13.8 0,-0.297 -2.972,-6.432 -0.225,-6.825 1.386,0.257 4.367,1.028 4.837,-1.463 1.454,-2.427 -3.137,-9.313 -6.263,-12.787 -2.713,-2.978 -6.46,-3.34 -10.087,-0.3 -2.54,2.338 -2.164,4.95 -2.663,7.425 -0.647,2.844 -0.523,6.366 2.363,10.125 2.536,5 7.144,11.418 5.625,20.475 0,0 -2.678,4.3 -7.387,3.75 -1.963,-0.428 -5.162,-1.278 -6.863,-13.837 -1.287,-9.507 0.322,-22.826 -3.713,-29.062 -0.9,-2.354 -1.693,-4.64 -3,-4.463 -0.784,0.106 -1.744,1.1 -3.075,3.526 -0.954,2.53 -5.07,6.356 -2.1,14.25 2.43,5.005 3.428,13.14 2.325,22.2 -1.684,2.575 -2.068,3.463 -4.275,6.038 -3.1,3.335 -6.46,2.482 -9.037,1.238 -2.408,-1.624 -4.3,-2.457 -5.4,-7.613 0.198,-8.22 0.677,-21.67 -0.825,-24.525 -2.215,-4.42 -5.865,-2.835 -7.425,-1.5 -7.497,6.854 -11.2,18.428 -13.463,27.637 -2.08,6.7 -4.295,4.77 -5.85,2.063 -3.787,-3.55 -4.053,-31.3 -8.625,-26.737 -7.323,20.928 4.202,43.854 12.187,41.625 z M 353.074,185.22 c -4.365,2.36 -6.055,9.365 -3.337,13.463 2.54,3.6 6.553,2.288 7.087,2.288 4.277,0.535 6.825,-8.025 6.825,-8.025 0,0 0.13,-2.407 -4.95,2.137 -2.137,0.4 -2.428,-0.372 -2.963,-1.575 -0.445,-2.227 -0.35,-4.485 0.675,-6.713 0.473,-1.335 0.002,-2.184 -1.012,-2.287 -0.6,-0.062 -1.406,0.16 -2.325,0.712 z m 282.103,106.853 c -0.935,-1.07 -3.045,-0.427 -4.463,-0.6 -0.675,0 -2.9,-0.328 -1.837,-2.288 0.88,-1.22 1.204,-1.948 1.8,-3.45 0.668,-1.47 0.08,-2.46 -2.325,-3.262 -1.225,-0.223 -2.072,-0.3 -2.963,-0.263 -0.891,0.037 -1.828,0.15 -3.187,0.263 -1.47,0.312 -1.983,0.956 -2.25,2.737 0.105,2.702 1.758,2.568 3.45,3.638 0.98,1.247 1.617,2.376 -0.075,4.425 l -4.35,3.75 c -0.757,1.292 -1.23,3.276 1.087,3.9 4.277,1.202 14.174,-5.228 14.174,-5.362 1.604,-1.202 1.072,-3.487 0.938,-3.487 z m 30.715,-112.97 c -0.325,-2.387 -1.38,-7.872 -0.975,-8.588 0.654,-1.677 3.96,0.168 5.137,-1.762 1.727,-1.764 -8.55,-14.923 -12.15,-20.55 -0.72,-1.413 -1.163,-2.576 -1.8,-2.512 -0.496,0.05 -1.1,0.85 -2.025,2.812 -2.226,3.646 -3,10.173 -2.1,15.938 5.358,36.244 9.34,71.34 10.163,103.463 -0.46,3.05 -0.595,4.67 -2.025,8.512 -3.163,4.054 -6.65,9.137 -9.937,11.587 -3.287,2.45 -10.277,4.785 -12.563,6.6 -7.252,4.192 -7.3,9.013 -1.425,9.188 10.106,-1.173 22.063,-2.002 30.3,-14.437 2.204,-3.485 4.8,-12.932 4.913,-18.713 0.77,-33.896 -0.434,-67.04 -5.513,-91.537 z m -437.454,66.467 37.5,-18 c -2.05,-3.062 -0.124,-5.822 -7.837,-6.037 -11.85,0.216 -29.205,15.534 -29.663,24.037 z m 6.68,38.843 c -3.117,6.328 -4.414,2 -4.687,-1.538 -0.478,-6.707 0.172,-12.883 0.9,-17.774 0.388,-2.507 0.373,-3.384 0.075,-3.375 -0.298,0.009 -0.895,0.9 -1.688,1.9 -7.05,11.232 -7.677,27.998 -3.787,33 2.067,2.364 5.475,3.403 7.987,2.663 4.43,-1.92 6.376,-10.892 5.325,-14.174 -1.478,-2.314 -2.65,-2.68 -4.125,-0.712 z m 88.4,-16.88 c 5.134,-17.095 -0.105,-29.992 1.613,-31.575 0.015,-0.012 0.06,-0.026 0.075,-0.037 0.015,-0.011 0.058,-0.03 0.075,-0.038 0.017,-0.008 0.056,-0.03 0.075,-0.038 a 1.05,1.05 0 0 1 0.225,-0.037 c 6.336,6.824 15.226,0.867 17.174,-1.5 0.836,-1.185 2.926,-1.944 4.387,-0.413 4.942,3.552 13.604,1.878 15.413,-4.388 1.045,-6.126 1.928,-12.433 2.137,-18.974 -3.22,1 -5.817,1.748 -6.863,2.85 -0.25,0.272 -0.433,0.574 -0.488,0.9 l -0.825,5.438 a 1.34,1.34 0 0 1 -0.15,0.412 1.74,1.74 0 0 1 -0.6,0.563 c -1.138,0.622 -3.123,0.266 -3.225,-1.387 -1.53,-6.962 -7.833,-7.868 -11.663,2.925 -2.576,2.088 -7.274,2.495 -7.763,-0.637 0.626,-7.24 -2.3,-8.212 -8.137,-4.8 l -5.625,-42.374 c 2.437,-0.07 4.672,1.697 6.9,-1.088 -2.4,-7.5 -7.513,-22.755 -10.387,-24.187 -0.023,-0.01 -0.053,-0.03 -0.075,-0.038 a 3.97,3.97 0 0 0 -0.413,-0.413 3.96,3.96 0 0 0 -0.187,-0.15 c -0.052,-0.038 -0.135,-0.083 -0.187,-0.112 a 2.07,2.07 0 0 0 -0.375,-0.15 2.12,2.12 0 0 0 -0.788,-0.075 h 0.002 c -0.715,0.1 -1.505,0.498 -2.437,0.712 -3.062,0.975 -5.93,3.623 -5.025,8.775 l 9.6,60.787 c 0.556,2.576 -1.603,5.972 -4.387,5.625 -4.734,-3.203 -5.9,-9.7 -13.987,-9.413 -5.848,0.07 -12.517,6.434 -13.35,12.563 -0.975,4.87 -1.322,10.152 0,14.4 4.1,4.942 9.033,4.415 13.35,3.3 3.55,-1.46 6.47,-4.96 7.725,-4.125 0.004,0.003 0.034,-0.005 0.037,0 0.003,0.005 -0.004,0.032 0,0.038 0.774,1.353 -0.073,12.795 -16.726,21.637 -10.234,4.595 -18.38,5.693 -22.763,-2.663 -2.715,-5.222 0.198,-25.1 -6.487,-20.513 -19.77,50.96 46.318,58.074 53.7,2.1 0.478,-1.58 1.935,-3.163 2.963,-2.775 0.45,0.192 0.864,0.805 1.013,1.95 -1.533,50.682 -51.127,54.156 -59.55,38.213 -2.088,-3.758 -2.716,-12.124 -2.925,-17.137 -0.382,-3.033 -1.143,-4.783 -2.025,-5.475 -2,-1.5 -4.7,2.428 -5.287,9.263 -0.836,5.5 -0.6,7 -0.6,12.3 2.645,40.03 66.466,22.83 76.837,-10.237 z m -24.654,-34.638 c -0.004,0.006 0.004,0.03 0,0.037 -0.01,0.018 -0.026,0.06 -0.037,0.075 -0.497,0.64 -2.244,0.375 -3.487,0.375 -1.505,-0.066 -2.246,-0.313 -3.15,-1.538 -0.432,-1.36 0.883,-2.698 1.463,-3.712 0.006,-0.01 0.032,-0.028 0.037,-0.038 a 1.93,1.93 0 0 1 0.263,-0.3 c 0.45,-0.412 1.228,-0.797 2.063,-0.9 0.162,-0.02 0.322,-0.04 0.488,-0.038 1.162,0.013 2.387,0.586 3.037,2.212 a 3.85,3.85 0 0 1 -0.675,3.825 z m 262.276,179.397 0.002,-10e-4 z M 509.893,194.67 c 4.936,2.354 14.23,1.32 13.837,-6.638 0,-0.704 -0.192,-3.068 -0.263,-3.712 -0.504,-1.173 -1.434,-1.617 -2.325,-1.462 -0.891,0.155 -1.75,0.926 -2.062,2.138 -0.196,0.793 0.38,2.076 -0.338,2.475 -0.412,0.416 -2.015,0.174 -1.95,-2.025 0,-0.7 -0.514,-1.47 -0.825,-1.913 -0.312,-0.204 -0.523,-0.262 -1.087,-0.262 -0.688,0.028 -0.673,0.2 -1.05,0.787 -0.16,0.6 -0.375,1.17 -0.375,1.838 -0.086,0.782 -0.362,1.047 -0.937,1.162 -0.643,0 -0.53,0.07 -1.05,-0.262 -0.3,-0.34 -0.675,-0.472 -0.675,-1.05 0,-0.6 -0.157,-1.554 -0.337,-1.95 -0.273,-0.36 -0.705,-0.5 -1.2,-0.638 -2.696,0.01 -2.855,3.07 -2.7,4.237 -0.202,0.22 -0.34,5.75 3.337,7.275 z m 79.58,20.515 c 0.085,-4.645 0.536,-10.82 0.787,-14.663 0.108,-1.45 0.448,-3.05 1.837,-3.413 1.389,-0.363 3.798,1.397 3.825,-0.113 -0.253,-2.955 -0.843,-7.315 -2.513,-9.375 -0.855,-1.267 -2.258,-1.954 -3.713,-2.025 -2.423,-0.118 -5.003,1.45 -5.663,4.762 0.01,1.954 0.882,3.027 0.712,4.8 -0.253,1.013 -1.297,1.68 -3.787,0.487 0.4,-0.358 -1.613,-3.187 -1.613,-3.187 -1.943,-1.183 -4.536,0.064 -6.225,1.163 -0.93,1.688 -1.616,4.583 -0.562,7.538 2.788,5.15 12.352,13.94 16.913,14.025 z M 558.718,279.3 c 3.44,0.023 7.414,-7.866 9.113,-15.674 0.93,-10.756 -0.62,-17.303 -0.9,-23.625 -0.28,-6.322 -7.157,-57.617 -8.55,-62.4 -1.68,-9.044 6.688,-1.2 5.775,-6.45 -2.893,-6.632 -10.114,-16.3 -12.374,-22.05 -0.85,-1.543 -0.955,-2.97 -1.65,-2.85 -0.418,0.072 -1.034,0.707 -2.176,2.213 -2.823,9.23 -3.815,16.768 -2.737,22.5 7.25,37.84 14.68,72.315 13.5,108.337 z m -25.798,-7.723 c -7.937,8.288 -19.38,18.5 -31.837,23.213 -1.34,1.504 3.332,7.918 9.375,7.912 10.106,-1.173 18.988,-6.845 27.226,-21.787 2.203,-3.484 6.074,-10.943 6.187,-16.726 0.77,-33.896 -1.7,-60.25 -6.787,-84.75 -0.325,-2.386 -0.104,-5.2 0.3,-5.925 0.654,-0.78 2.873,0.018 4.05,-1.913 1.727,-1.764 -4.613,-16.386 -8.213,-22.013 -0.72,-1.413 -1.163,-2.54 -1.8,-2.475 -0.496,0.05 -1.1,0.813 -2.026,2.775 -2.226,3.646 -3.738,9.994 -3.563,15.937 4.82,33.377 6.3,62.585 9.45,95.963 0.256,3.228 -0.217,7.917 -2.363,9.788 z M 553.67,257.9 c 0.124,-0.526 0.095,-0.487 0,0 z m -40.444,-94.1 c 1.76,4.93 -1.345,9.633 0.487,10.313 1.686,0.76 4.032,-5.1 4.913,-10.5 1.017,-4.374 -2.103,-13.337 -6.525,-15.187 -0.34,-0.08 -0.7,-0.102 -1.05,-0.112 -2.53,-0.075 -5.328,1.52 -4.238,4.687 -0.635,1.73 5.434,7.6 6.413,10.8 z m 89.12,51.186 a 0.82,0.82 0 0 0 -0.413,0.038 l -23.437,16.837 c -2.268,2.017 -1.133,9.106 0,8.288 1.64,0.63 24.665,-14.974 24.226,-16.8 1.003,0.06 1.486,-8.027 -0.375,-8.363 z m -16.1,-45.53 a 876.241,876.241 0 0 1 20.4,26.1 c 1.446,18.62 1.832,35.687 3.3,54.337 -0.208,7.977 -2.662,18.57 -4.987,19.575 0,0 -3.552,2.04 -5.925,-0.225 -1.726,-0.693 -8.625,-11.513 -8.625,-11.513 -3.532,-3.238 -5.887,-2.312 -8.4,0 -6.93,6.692 -10.065,19.228 -14.774,27.863 -1.214,1.927 -4.635,3.567 -8.437,-0.15 -7.824,-10.7 -5.604,-25.042 -5.117,-27.542 l -0.095,0.392 c -8.602,9.694 -4.793,25.758 -2.85,29.213 2.836,5.674 5.13,9.306 10.65,12.112 5.027,3.7 8.94,1.4 11.1,-1.2 5.058,-5.242 5.126,-18.648 7.5,-21.3 1.666,-4.872 5.84,-4.034 7.875,-1.875 1.973,2.836 4.302,4.682 7.2,6.225 4.718,4.162 10.35,4.918 15.9,1.125 3.793,-2.127 6.254,-4.893 8.475,-10.35 2.383,-6.373 1.205,-39.77 0.675,-58.35 l 10.575,15.337 c 1.534,16.3 2.23,32.372 1.725,47.774 -0.362,3.063 10.687,-9.144 10.613,-14.925 v -13.913 c 5.36,8.557 10.547,17.256 15.45,26.063 3.038,-1.6 1.997,-18.813 0.075,-21.187 -5.134,-8.614 -11.708,-17.923 -16.8,-25.125 -1.006,-9.1 -2.377,-19.814 -3,-23.1 -0.97,-5.124 -1.944,-12.82 -3.413,-18.9 -0.403,-2.374 -1.62,-9.958 -1.237,-10.687 0.6,-1.697 2.86,0.054 3.975,-1.913 1.668,-1.818 -5.78,-21.117 -9.563,-26.625 -1.36,-2.47 -3.818,-1.614 -6.863,2.4 -2.823,2.642 -1.8,8.668 -0.712,14.4 2.8,14.608 5.298,29.486 7.275,44.325 l -12.526,-18.374 -0.562,-2.888 c 0,-0.262 -0.606,-11.95 -1.125,-14.737 -0.1,-1.13 -0.36,-1.456 0.825,-1.312 1.257,1.057 1.427,1.114 2.213,1.463 1.27,0.232 2.378,-1.913 1.613,-3.9 l -11.775,-21.75 c -0.472,-0.465 -1.002,-0.955 -1.613,-1.05 -0.611,-0.095 -1.276,0.205 -2.025,1.313 -1.432,1.255 -2.972,3.53 -2.925,6.45 0.348,5.146 1.264,10.416 1.613,15.563 l 0.375,2.063 a 19.875,19.875 0 0 0 -1.313,-1.537 c -10.032,-10.54 4.6,-1.723 -1.913,-9.863 -5.515,-6.056 -7.13,-7.983 -11.85,-11.625 -2.367,-1.53 -3.797,-4.454 -4.575,0.525 -0.3,4.374 -0.63,9.438 -0.337,13.126 -0.017,2.05 2.105,5.906 3.937,8.175 z m 58.167,8.455 c 0.802,2.473 -1.22,10.44 0.45,11.175 1.537,0.824 3.698,-5.505 4.5,-11.363 0.445,-3.206 -1.93,-14.458 -5.963,-16.462 a 4.23,4.23 0 0 0 -0.975,-0.15 c -2.306,-0.08 -4.82,1.67 -3.825,5.1 -0.578,1.87 4.92,8.226 5.813,11.7 z m -174.84,115.362 c 0,0.188 1.932,1.847 4.2,0.525 4.787,-1.828 7.77,-3.605 14.474,-5.062 1.76,-0.035 1.658,-4.745 -1.125,-4.913 -3.63,0.183 -6.982,0.368 -10.613,3.225 -2.234,0.516 -2.617,-0.843 -3.113,-2.062 -0.567,-3.025 1.277,-5.157 0.9,-7.425 0.1,0.1 -1.127,-1.003 -2.7,-1.087 a 3.24,3.24 0 0 0 -1.65,0.337 c -0.1,0 -5.047,3.338 -6.637,5.663 -0.97,0.738 -0.86,1.38 -0.562,2.663 0.756,1.738 2.088,1.192 3.6,0.375 2.007,-0.273 2.977,1.04 2.813,3.45 -0.927,3.004 0.413,4.124 0.413,4.313 z m 22.634,-47.788 0.037,-0.038 c 0.004,-0.004 0.034,-0.032 0.037,-0.037 0.003,-0.005 0.03,-0.03 0.037,-0.038 v -0.075 a 1.27,1.27 0 0 0 -0.037,-0.375 l -2.175,-1.275 -42.863,-0.187 c -0.53,-0.204 -0.923,-0.408 -1.162,-0.6 -0.018,-0.016 -0.06,-0.06 -0.075,-0.075 l -0.037,-0.038 -0.037,-0.037 -0.037,-0.075 -0.037,-0.038 v -0.037 l -0.037,-0.038 v -0.15 a 1.86,1.86 0 0 0 0,-0.037 v -0.112 l 0.037,-0.038 0.037,-0.075 c 0.2,-0.282 0.716,-0.548 1.35,-0.788 10.235,-1.395 28.418,-4.375 29.626,-21.863 -0.2,-9.1 -3.898,-15.073 -15.074,-16.726 -8.213,0.635 -14.07,8.58 -13.126,17.326 -0.393,2.355 0.797,6.977 -1.613,7.5 -15.754,1.44 -32.948,11.3 -33.526,18.375 h -0.037 l -0.037,0.038 -0.075,0.037 h -0.075 a 2.46,2.46 0 0 1 -0.112,0.038 h -0.15 a 1.92,1.92 0 0 1 -0.075,0 2.52,2.52 0 0 1 -0.15,-0.038 c -1.025,-0.284 -2.345,-1.975 -2.137,-4.35 -0.6,-12.212 -4.575,-26.032 -10.8,-36.675 -2.222,-2.22 -3.2,-3.12 -3.825,-3.225 -0.02,-0.002 -0.055,0.001 -0.075,0 h -0.23 c -0.064,0.024 -0.128,0.08 -0.187,0.112 a 2.03,2.03 0 0 0 -0.112,0.075 c -0.483,0.362 -1.052,1.198 -2.325,2.1 -2.147,2.442 -2.532,4.143 -2.4,9.037 0.122,0.518 4.076,11.5 7.425,19.237 2.258,8.03 4.347,17.228 2.813,25.913 -5.287,11.482 -15.916,21.78 -26.174,27.374 -5.227,1.674 -9.74,1.104 -10.95,-0.037 l -0.037,-0.038 c -3.002,-2.018 -3.07,-5.6 -2.887,-6.225 v -0.037 l 0.037,-0.038 c 8.657,-6.03 18.545,-10.9 26.287,-27.187 2.286,-6.22 2.984,-9.956 0.712,-19.575 -0.885,-3.584 -1.98,-6.533 -4.425,-9.075 l 0.037,-0.038 c 1.474,-0.705 5.297,2.112 5.887,0.337 -0.905,-4.592 -4.015,-10.758 -7.537,-13.913 -3.084,-2.8 -6.44,-3.125 -9.263,-0.562 -3.18,1.77 -3.856,8.125 -2.325,13.687 1.7,4.188 6.292,4.922 9.563,13.35 v 0.038 c 0.068,0.528 1.122,6.3 -0.525,8.625 -1.337,4.17 -18.5,17.7 -19.726,18.525 -0.013,0.014 -0.1,0.063 -0.112,0.075 l -0.037,0.037 a 0.92,0.92 0 0 0 -0.037,0.038 1.81,1.81 0 0 0 -0.037,0.038 h -0.075 a 0.67,0.67 0 0 1 -0.037,-0.038 v -0.038 a 2.634,2.634 0 0 1 -0.037,-0.075 c -0.052,-0.338 0.04,-1.2 0,-2.587 -0.113,-2.538 0.937,-8.278 0.862,-9.263 v -0.038 l -0.037,-0.037 v -0.038 h -0.037 c -5.676,3.665 -7.55,14.9 -8.587,18.226 -14.37,9.93 -30.7,17.316 -40.087,27.375 -4.895,7.644 33.725,-8.778 38.213,-10.763 0.04,0.03 0.077,0.076 0.112,0.113 0.853,0.938 0.926,4.212 3.487,7.162 4.014,5.438 12.547,8.787 20.85,6.713 13.924,-5.033 21.946,-14.522 30.113,-25.05 1.167,-1.698 2.997,-3.036 4.687,-1.725 5.612,12.564 21.793,21.504 42.713,22.426 4.84,-5.887 2.526,-8.78 0.563,-10.013 -0.605,-0.402 -10.404,-4.222 -11.925,-8.025 -0.958,-3.54 1.37,-6.678 6.037,-9.038 13.432,-1.624 26.635,-3.43 39.413,-7.537 0.13,-4.293 2.658,-10.712 4.35,-13.5 1.175,-1.935 1.93,-2.126 2.213,-2.4 z M 456.855,218.57 a 1.23,1.23 0 0 1 0.15,-0.375 c 0.024,-0.042 0.046,-0.1 0.075,-0.15 l 0.037,-0.037 a 1.68,1.68 0 0 1 0.188,-0.187 c 0.272,-0.214 0.658,-0.367 1.088,-0.413 0.933,-0.1 2.158,0.218 3.337,0.9 1.707,0.988 2.76,2.48 2.625,3.563 -0.005,0.03 0.006,0.084 0,0.113 -0.006,0.029 -0.066,0.084 -0.075,0.112 l -0.037,0.112 c -0.007,0.018 -0.03,0.058 -0.037,0.075 a 1.46,1.46 0 0 1 -0.037,0.075 1.484,1.484 0 0 1 -0.225,0.263 c -0.82,0.767 -2.715,0.657 -4.5,-0.375 -1.692,-0.98 -2.737,-2.48 -2.625,-3.562 0.004,-0.03 0.032,-0.083 0.037,-0.113 z M 439.72,261.5 c -4.6,1.575 -9.017,2.805 -9.037,9.45 0.605,3.292 0.477,5.02 -0.037,5.813 a 1.77,1.77 0 0 1 -0.15,0.188 l -0.037,0.038 -0.037,0.038 a 0.38,0.38 0 0 1 -0.037,0.037 l -0.037,0.038 a 1.32,1.32 0 0 0 -0.075,0.038 1.3,1.3 0 0 1 -0.225,0.112 c -0.064,0.022 -0.157,0.026 -0.225,0.038 -1.093,0.16 -2.68,-0.882 -3.863,-1.5 -2.835,-2.036 -10.792,-6.967 -11.925,-17.55 -0.16,-2.388 1.626,-4.448 4.5,-4.65 0.14,-0.01 0.265,0.001 0.412,0 a 1.92,1.92 0 0 1 0.075,0 c 4.775,1.298 11.814,1.432 17.926,2.063 4.977,0.315 7.437,4.212 2.775,5.85 z M 339.146,246.875 c -0.112,1.904 5.262,4.22 5.587,8.625 0.768,1.817 -1.15,7.635 0.45,8.175 1.468,0.604 3.506,-4.022 4.275,-8.325 0.426,-2.357 -1.844,-10.603 -5.7,-12.074 a 6.63,6.63 0 0 0 -1.837,-0.15 c -1.862,0.13 -3.524,1.125 -2.775,3.75 z M 425.53,220.02 c 4.936,2.354 16.7,0.968 13.837,-6.637 0,-0.704 -0.192,-3.068 -0.262,-3.713 -0.504,-1.173 -1.434,-1.617 -2.325,-1.462 -0.891,0.155 -1.75,0.9 -2.062,2.1 -0.196,0.793 0.38,2.113 -0.337,2.513 -0.412,0.416 -2.015,0.174 -1.95,-2.025 0,-0.7 -0.514,-1.47 -0.825,-1.913 -0.312,-0.205 -0.485,-0.263 -1.05,-0.263 -0.688,0.028 -0.7,0.2 -1.087,0.788 -0.16,0.6 -0.375,1.17 -0.375,1.837 -0.086,0.783 -0.362,1.048 -0.937,1.163 -0.643,0 -0.5,0.07 -1.013,-0.263 -0.3,-0.338 -0.712,-0.472 -0.712,-1.05 0,-0.6 -0.12,-1.555 -0.3,-1.95 -0.273,-0.36 -0.743,-0.5 -1.237,-0.637 -2.696,0.01 -2.855,3.07 -2.7,4.237 -0.202,0.22 -0.34,5.75 3.337,7.275 z m 46.067,56.453 z m -4.273,-110.807 c 8.275,11.123 16.237,22.3 23.926,33.863 1.2,8.586 2.094,16.985 2.663,25.35 1.246,18.34 1.624,41.172 0.487,60.487 3.436,0.135 8.942,-5.55 10.875,-13.875 1.257,-11.517 -0.448,-35.016 -0.562,-41.813 -0.08,-2.822 -0.255,-6.188 -0.45,-9.712 a 631.705,631.705 0 0 1 26.137,47.1 c 3.105,-1.476 2.417,-18.958 0.6,-21.413 -6.817,-14.672 -16.235,-29.155 -19.237,-34.726 -1.084,-2 -4.775,-7.625 -9.15,-14.1 -0.805,-9.238 -1.68,-17.062 -2.25,-19.425 -1.407,-9.766 4.014,1.1 3.263,-4.575 -1.76,-9.752 -7.142,-16.38 -13.5,-25.312 -2.05,-2.905 -2,-3.498 -5.175,0.712 -1.892,4.292 -1.866,7.863 -1.313,11.212 a 61.878,61.878 0 0 0 -3.337,-4.425 l -10.387,-8.812 c -1.437,-1.02 -4.173,-2.6 -6.263,-2.4 -1.254,0.115 -2.252,0.85 -2.625,2.7 -0.5,4.356 -0.244,6.724 0.488,10.35 0.56,2.418 4.08,6.466 5.813,8.813 z m 17.52,-0.657 c 0.2,0.94 0.422,1.887 0.563,2.85 0.473,2.078 0.88,4.142 1.313,6.188 -1.82,-2.506 -3.327,-4.532 -3.975,-5.25 -4.12,-4.895 0.093,-3.214 2.1,-3.788 z"
           inkscape:connector-curvature="0" />
        <path
           id="path819"
           d="m 561.142,412.3 c -0.01,0.005 -0.028,0.03 -0.037,0.037 -7.113,1.825 -6.892,9.2 -2.325,12.45 -75.113,0 -190.38,-1.275 -215.1,-1.275 -13.83,0 -57.584,-1.65 -58.426,-1.65 9.384,13.724 22.976,16.52 40.763,16.8 l 231.936,-0.412 c -3.127,5.553 0.284,14.5 2.737,16.126 0.052,0.034 0.136,0.086 0.188,0.112 a 1.14,1.14 0 0 0 0.3,0.112 c 0.03,0.007 0.084,-0.004 0.112,0 2.913,0.687 4.194,-1.422 5.175,-2.963 4.725,0.416 31.316,0.8 33.75,-0.037 0.008,-0.004 0.03,-0.034 0.037,-0.037 1.646,2.423 3.28,4.712 6.413,4.313 5.483,-1.176 9.8,-1.772 9.937,-12.9 0,0 -0.56,-18.962 -13.013,-17.774 -2.946,0.445 -11.213,1.275 -11.213,1.275 -9.566,-1.138 -16.583,-1.254 -27.337,-1.65 0.993,-1.26 2.745,-6.364 0.6,-8.213 -0.56,-0.465 -1.394,-0.724 -2.55,-0.637 h -0.037 c -0.016,-10e-4 -0.06,0.002 -0.075,0 -0.008,-0.002 -0.03,-0.035 -0.037,-0.037 -0.03,-0.01 -0.083,-0.02 -0.112,-0.037 a 1.18,1.18 0 0 1 -0.187,-0.187 c -0.013,-0.017 -0.062,-0.057 -0.075,-0.075 -0.544,-0.792 -0.84,-2.733 -1.2,-3.225 l -0.037,-0.037 c -0.005,-0.003 -0.033,-0.034 -0.037,-0.037 a 0.63,0.63 0 0 0 -0.075,-0.037 h -0.074 z m 5.1,27.114 c 0.013,-0.006 0.024,0.006 0.037,0 10.958,0.535 21.254,0.103 32.213,0.637 1.737,1.476 0.868,4.858 -0.263,5.475 -0.06,0.03 -0.123,0.055 -0.187,0.075 -0.04,0.01 -0.1,-10e-4 -0.15,0 -0.05,10e-4 -0.1,0.01 -0.15,0 l -9.187,-0.262 a 2.03,2.03 0 0 0 -0.075,-0.525 c -0.844,-2.503 -6.96,-2.335 -8.4,-0.375 -0.026,0.037 -0.05,0.074 -0.075,0.112 -0.025,0.038 -0.056,0.1 -0.075,0.15 a 2.299,2.299 0 0 0 -0.075,0.188 c -0.022,0.074 -0.028,0.184 -0.037,0.262 -0.01,0.1 -0.045,0.205 -0.037,0.3 -4.8,0.578 -9.14,-0.16 -13.95,-0.337 -1.4,-1.757 -1.247,-4.936 0.413,-5.7 z"
           inkscape:connector-curvature="0"
           style="fill-rule:evenodd" />
      </g>
    </g>
  </g>
</svg>
